<svg width="28" height="27" viewBox="0 0 28 27" fill="none" xmlns="http://www.w3.org/2000/svg">
<path d="M15.0998 15.3333C15.0998 14.7258 14.6073 14.2333 13.9998 14.2333C13.3923 14.2333 12.8998 14.7258 12.8998 15.3333V19.7778C12.8998 20.3853 13.3923 20.8778 13.9998 20.8778C14.6073 20.8778 15.0998 20.3853 15.0998 19.7778V15.3333Z" fill="#E40646"/>
<path d="M21.0122 14.254C21.6083 14.3712 21.9964 14.9495 21.8792 15.5456L21.005 19.99C20.8877 20.5861 20.3094 20.9743 19.7133 20.8571C19.1173 20.7398 18.7291 20.1615 18.8463 19.5654L19.7205 15.121C19.8378 14.5249 20.4161 14.1367 21.0122 14.254Z" fill="#E40646"/>
<path d="M8.27902 15.121C8.16177 14.5249 7.5835 14.1367 6.98741 14.254C6.39132 14.3712 6.00313 14.9495 6.12037 15.5456L6.99453 19.99C7.11177 20.5861 7.69004 20.9743 8.28614 20.8571C8.88223 20.7398 9.27041 20.1616 9.15317 19.5655L8.27902 15.121Z" fill="#E40646"/>
<path fill-rule="evenodd" clip-rule="evenodd" d="M11.9377 2.63081C12.2861 2.13311 12.165 1.44723 11.6673 1.09884C11.1696 0.750456 10.4838 0.871494 10.1354 1.36919L5.27865 8.30737H4.50046C1.81767 8.30737 -0.210094 10.7371 0.269818 13.3766L2.06914 23.2729C2.44089 25.3175 4.22166 26.8037 6.29979 26.8037H21.6992C23.7774 26.8037 25.5581 25.3175 25.9299 23.2729L27.7292 13.3766C28.2091 10.7371 26.1814 8.30737 23.4986 8.30737H22.721L17.8643 1.36919C17.5159 0.871494 16.83 0.750456 16.3323 1.09884C15.8346 1.44723 15.7136 2.13311 16.0619 2.63081L20.0355 8.30737H7.96409L11.9377 2.63081ZM4.50046 10.5074C3.19026 10.5074 2.19996 11.694 2.43433 12.983L4.23366 22.8793C4.41521 23.8779 5.28489 24.6037 6.29979 24.6037H21.6992C22.7141 24.6037 23.5838 23.8779 23.7654 22.8793L25.5647 12.983C25.7991 11.694 24.8088 10.5074 23.4986 10.5074H4.50046Z" fill="#E40646"/>
</svg>
