<svg width="44" height="44" viewBox="0 0 44 44" fill="none" xmlns="http://www.w3.org/2000/svg">
<path fill-rule="evenodd" clip-rule="evenodd" d="M8.3158 0.700195C9.03377 0.700195 9.6158 1.28223 9.6158 2.0002V7.09493H14.6316C15.3496 7.09493 15.9316 7.67696 15.9316 8.39493C15.9316 9.1129 15.3496 9.69493 14.6316 9.69493H9.6158V14.7897C9.6158 15.5076 9.03377 16.0897 8.3158 16.0897C7.59783 16.0897 7.0158 15.5076 7.0158 14.7897V9.69493H2.00001C1.28204 9.69493 0.700012 9.1129 0.700012 8.39493C0.700012 7.67696 1.28204 7.09493 2.00001 7.09493H7.0158V2.0002C7.0158 1.28223 7.59783 0.700195 8.3158 0.700195ZM35.9358 5.51447C34.9486 5.43281 33.6851 5.43177 31.8947 5.43177H23.0526C22.3347 5.43177 21.7526 4.84974 21.7526 4.13177C21.7526 3.4138 22.3347 2.83177 23.0526 2.83177L31.9521 2.83177C33.6721 2.83176 35.0432 2.83175 36.1501 2.92332C37.285 3.0172 38.2568 3.21392 39.1476 3.67344C40.5818 4.41338 41.7449 5.59245 42.4729 7.03898C42.9239 7.93531 43.1173 8.91327 43.2098 10.0587C43.3 11.1775 43.3 12.5642 43.3 14.3073V32.3247C43.3 34.0678 43.3 35.4544 43.2098 36.5732C43.1173 37.7187 42.9239 38.6967 42.4729 39.593C41.7449 41.0395 40.5818 42.2186 39.1476 42.9585C38.2568 43.4181 37.285 43.6148 36.1501 43.7086C35.0432 43.8002 33.6721 43.8002 31.9522 43.8002H14.1531C12.4332 43.8002 11.0621 43.8002 9.95516 43.7086C8.82031 43.6148 7.84847 43.4181 6.95773 42.9585C5.52346 42.2186 4.36035 41.0395 3.63241 39.593C3.18134 38.6967 2.98797 37.7187 2.89553 36.5732C2.80526 35.4545 2.80526 34.0679 2.80528 32.3248L2.80528 23.316C2.80528 22.598 3.38731 22.016 4.10528 22.016C4.82325 22.016 5.40528 22.598 5.40528 23.316V32.2686C5.40528 34.0805 5.40626 35.3622 5.48711 36.3641C5.56677 37.3513 5.71759 37.9526 5.9549 38.4242C6.43799 39.3842 7.20727 40.1617 8.14978 40.6479C8.61006 40.8853 9.19803 41.0371 10.1695 41.1175C11.1567 41.1992 12.4202 41.2002 14.2105 41.2002H31.8947C33.6851 41.2002 34.9486 41.1992 35.9358 41.1175C36.9073 41.0371 37.4952 40.8853 37.9555 40.6479C38.898 40.1617 39.6673 39.3842 40.1504 38.4242C40.3877 37.9526 40.5385 37.3513 40.6182 36.3641C40.699 35.3622 40.7 34.0805 40.7 32.2686V14.3634C40.7 12.5515 40.699 11.2698 40.6182 10.2679C40.5385 9.28066 40.3877 8.67932 40.1504 8.20774C39.6673 7.24778 38.898 6.47031 37.9555 5.98408C37.4952 5.74662 36.9073 5.59484 35.9358 5.51447ZM23.0526 11.3581C23.7706 11.3581 24.3526 11.9401 24.3526 12.6581V33.9739C24.3526 34.6918 23.7706 35.2739 23.0526 35.2739C22.3347 35.2739 21.7526 34.6918 21.7526 33.9739V12.6581C21.7526 11.9401 22.3347 11.3581 23.0526 11.3581ZM31.4737 19.8844C32.1917 19.8844 32.7737 20.4664 32.7737 21.1844V33.9739C32.7737 34.6918 32.1917 35.2739 31.4737 35.2739C30.7557 35.2739 30.1737 34.6918 30.1737 33.9739V21.1844C30.1737 20.4664 30.7557 19.8844 31.4737 19.8844ZM14.6316 24.1476C15.3496 24.1476 15.9316 24.7296 15.9316 25.4476V33.9739C15.9316 34.6918 15.3496 35.2739 14.6316 35.2739C13.9136 35.2739 13.3316 34.6918 13.3316 33.9739V25.4476C13.3316 24.7296 13.9136 24.1476 14.6316 24.1476Z" fill="#EF8019"/>
</svg>
