<svg width="29" height="29" viewBox="0 0 29 29" fill="none" xmlns="http://www.w3.org/2000/svg">
<path d="M10.7657 1.00596C10.4008 0.52026 9.71125 0.422357 9.22555 0.787283C8.74052 1.15171 8.64222 1.8399 9.00539 2.32548C9.13901 2.50722 9.25682 2.7022 9.36224 2.90134C9.56846 3.29086 9.65914 3.60248 9.65221 3.75676C9.69281 3.7954 9.3871 4.04099 9.33942 4.08179C9.03226 4.34924 8.39977 4.89994 8.35502 5.89617C8.32006 6.67455 8.66178 7.43263 8.89843 7.87965C9.05725 8.17963 9.23533 8.47382 9.43927 8.74569C9.8042 9.23138 10.4938 9.32928 10.9795 8.96436C11.4645 8.59993 11.5627 7.91162 11.1995 7.42603C11.0674 7.24286 10.9484 7.04985 10.8428 6.8503C10.6366 6.46078 10.5459 6.14916 10.5528 5.99488C10.519 5.96271 10.8264 5.70415 10.8656 5.66985C11.1728 5.40241 11.8052 4.8517 11.85 3.85547C11.885 3.07709 11.5432 2.31901 11.3066 1.87199C11.1478 1.57201 10.9697 1.27784 10.7657 1.00596Z" fill="#EF8019"/>
<path fill-rule="evenodd" clip-rule="evenodd" d="M0.650635 11.9359C0.650635 11.3284 1.14312 10.8359 1.75064 10.8359H22.9307C24.3983 10.8359 25.8252 11.267 26.9626 12.2211C28.0446 13.1285 28.7005 14.4051 28.7005 15.7869V16.7496C28.7005 18.1313 28.0446 19.4079 26.9626 20.3154C25.9665 21.1509 24.6723 21.6264 23.333 21.6925C23.0385 22.5065 22.6531 23.2891 22.1813 24.0248C21.6584 24.8402 21.0389 25.5833 20.3395 26.2396H22.931C23.5385 26.2396 24.031 26.732 24.031 27.3396C24.031 27.9471 23.5385 28.4396 22.931 28.4396C15.8706 28.4396 8.81129 28.4396 1.75088 28.4396C1.14337 28.4396 0.650879 27.9471 0.650879 27.3396C0.650879 26.732 1.14337 26.2396 1.75088 26.2396H4.34189C3.64246 25.5833 3.02299 24.8402 2.50008 24.0248C1.29211 22.141 0.650219 19.9501 0.650635 17.7123V11.9359ZM20.3293 22.8372C19.3909 24.3007 18.0693 25.477 16.5102 26.2396H8.17122C6.61212 25.477 5.2905 24.3007 4.35202 22.8372C3.37136 21.3079 2.85026 19.5291 2.85064 17.7123V13.0359H21.8307V17.7126C21.8311 19.4882 21.29 21.3391 20.3293 22.8372ZM23.9076 19.4068C24.5378 19.273 25.1058 19.0014 25.5489 18.6298C26.189 18.0929 26.5005 17.4105 26.5005 16.7496V15.7869C26.5005 15.126 26.189 14.4435 25.5489 13.9066C25.1348 13.5594 24.6117 13.2995 24.0307 13.1577V17.7121C24.0308 18.2815 23.9894 18.8478 23.9076 19.4068Z" fill="#EF8019"/>
<path d="M14.3603 0.787283C14.846 0.422357 15.5356 0.52026 15.9005 1.00596C16.1044 1.27784 16.2825 1.57201 16.4413 1.87199C16.678 2.31901 17.0197 3.07709 16.9848 3.85547C16.94 4.8517 16.3075 5.40241 16.0004 5.66985C15.9665 5.69997 15.6563 5.96515 15.6876 5.99488C15.6806 6.14916 15.7713 6.46078 15.9775 6.8503C16.0832 7.04985 16.2022 7.24286 16.3343 7.42603C16.6975 7.91162 16.5993 8.59993 16.1142 8.96436C15.6285 9.32928 14.939 9.23138 14.574 8.74569C14.3701 8.47382 14.192 8.17963 14.0332 7.87965C13.7965 7.43263 13.4548 6.67455 13.4898 5.89617C13.5345 4.89994 14.167 4.34924 14.4742 4.08179C14.5355 4.02844 14.8239 3.79191 14.787 3.75676C14.7939 3.60248 14.7032 3.29086 14.497 2.90134C14.3916 2.7022 14.2738 2.50722 14.1402 2.32548C13.777 1.8399 13.8753 1.15171 14.3603 0.787283Z" fill="#EF8019"/>
</svg>
