<svg width="46" height="41" viewBox="0 0 46 41" fill="none" xmlns="http://www.w3.org/2000/svg">
<path fill-rule="evenodd" clip-rule="evenodd" d="M17.7472 2.6542C13.242 2.6542 9.5897 6.30646 9.5897 10.8117C9.5897 15.317 13.242 18.9693 17.7472 18.9693C22.2525 18.9693 25.9048 15.317 25.9048 10.8117C25.9048 6.30646 22.2525 2.6542 17.7472 2.6542ZM6.9897 10.8117C6.9897 4.87052 11.806 0.0541992 17.7472 0.0541992C23.6885 0.0541992 28.5048 4.87052 28.5048 10.8117C28.5048 16.753 23.6885 21.5693 17.7472 21.5693C11.806 21.5693 6.9897 16.753 6.9897 10.8117ZM30.244 1.75874C30.5635 1.11578 31.3437 0.853591 31.9867 1.17311C35.5257 2.93184 37.9623 6.58605 37.9623 10.8117C37.9623 15.0374 35.5257 18.6917 31.9867 20.4504C31.3437 20.7699 30.5635 20.5077 30.244 19.8648C29.9245 19.2218 30.1867 18.4416 30.8296 18.122C33.5188 16.7856 35.3623 14.0128 35.3623 10.8117C35.3623 7.61071 33.5188 4.83786 30.8296 3.50145C30.1867 3.18193 29.9245 2.40169 30.244 1.75874ZM17.7472 27.8743C12.2974 27.8743 7.38964 30.846 4.24198 35.5721C3.8564 36.151 3.63851 36.4828 3.50673 36.7516C3.25615 37.2627 3.57444 37.7725 4.15394 37.8399C4.51862 37.8823 5.01029 37.8844 5.81467 37.8844H29.6798C30.4842 37.8844 30.9759 37.8823 31.3405 37.8399C31.8831 37.7768 32.2661 37.3192 31.9878 36.7516C31.856 36.4828 31.6381 36.151 31.2525 35.5721C28.1048 30.846 23.1971 27.8743 17.7472 27.8743ZM2.078 34.1308C5.63177 28.795 11.2989 25.2743 17.7472 25.2743C24.1955 25.2743 29.8627 28.795 33.4165 34.1308C33.736 34.6104 34.068 35.0885 34.3223 35.6071C34.5695 36.1113 34.7291 36.6508 34.691 37.2865C34.6607 37.791 34.4906 38.2783 34.2762 38.6788C34.0617 39.0793 33.7504 39.491 33.3473 39.7959C32.8119 40.2008 32.2232 40.3548 31.641 40.4225C31.108 40.4845 30.463 40.4844 29.7469 40.4844H5.74756C5.03154 40.4844 4.38648 40.4845 3.85352 40.4225C3.27134 40.3548 2.68257 40.2008 2.14719 39.7959C1.74407 39.491 1.43278 39.0793 1.21832 38.6788C1.00386 38.2783 0.833788 37.791 0.803505 37.2865C0.765347 36.6508 0.925017 36.1113 1.1722 35.6071C1.42645 35.0885 1.75852 34.6104 2.078 34.1308ZM34.4498 27.7496C34.7721 27.1081 35.5535 26.8492 36.1951 27.1715C39.487 28.8252 42.2838 31.4654 44.3141 34.736C44.6556 35.2861 45.0146 35.8263 45.1286 36.5617C45.2493 37.3402 45.0391 38.1107 44.7026 38.7156C44.3662 39.3205 43.8224 39.9054 43.0973 40.2135C42.4028 40.5086 41.6417 40.4844 40.8657 40.4844C40.1477 40.4844 39.5657 39.9024 39.5657 39.1844C39.5657 38.4664 40.1477 37.8844 40.8657 37.8844C41.8621 37.8844 41.9873 37.8602 42.0806 37.8205C42.3581 37.7026 42.6054 37.2579 42.5593 36.9599C42.5421 36.8495 42.5219 36.7787 42.1051 36.1072C40.3057 33.2086 37.8557 30.9154 35.0279 29.4948C34.3864 29.1726 34.1275 28.3912 34.4498 27.7496Z" fill="#E40646"/>
</svg>
