<svg width="44" height="44" viewBox="0 0 44 44" fill="none" xmlns="http://www.w3.org/2000/svg">
<path fill-rule="evenodd" clip-rule="evenodd" d="M21.9997 13.6759C17.4026 13.6759 13.676 17.4025 13.676 21.9995C13.676 26.5966 17.4026 30.3232 21.9997 30.3232C26.5967 30.3232 30.3233 26.5966 30.3233 21.9995C30.3233 17.4025 26.5967 13.6759 21.9997 13.6759ZM16.276 21.9995C16.276 18.8385 18.8386 16.2759 21.9997 16.2759C25.1607 16.2759 27.7233 18.8385 27.7233 21.9995C27.7233 25.1606 25.1607 27.7232 21.9997 27.7232C18.8386 27.7232 16.276 25.1606 16.276 21.9995Z" fill="#0698D6"/>
<path fill-rule="evenodd" clip-rule="evenodd" d="M17.4049 0.735279C17.0835 0.478483 16.6596 0.388952 16.2618 0.49388C14.3709 0.992696 12.5546 1.74061 10.8607 2.71797C10.5031 2.92436 10.2647 3.28843 10.2186 3.69882L9.64457 8.80755C9.36261 9.07215 9.08912 9.34564 8.82451 9.6276L3.71372 10.2016C3.30397 10.2477 2.94035 10.4853 2.73376 10.8422C1.75189 12.5382 0.999624 14.3571 0.496696 16.2512C0.390969 16.6494 0.48024 17.0741 0.737321 17.396L3.94609 21.4142C3.93388 21.801 3.93388 22.188 3.94609 22.5748L0.735462 26.5929C0.478071 26.915 0.388755 27.3401 0.494757 27.7386C0.998636 29.6327 1.75257 31.4513 2.73666 33.1463C2.94231 33.5005 3.30286 33.7371 3.70967 33.7848L8.82625 34.3841C9.09161 34.667 9.36591 34.9414 9.64874 35.2068L10.2228 40.3176C10.2689 40.7282 10.5074 41.0924 10.8654 41.2987C12.562 42.2767 14.3809 43.0253 16.2744 43.5247C16.672 43.6295 17.0958 43.5401 17.4172 43.2835L21.4353 40.0747C21.8221 40.0869 22.2092 40.0869 22.5959 40.0747L26.614 43.2853C26.9361 43.5427 27.3612 43.6321 27.7597 43.5261C29.6538 43.0222 31.4724 42.2682 33.1674 41.2841C33.5235 41.0774 33.7606 40.7142 33.8066 40.305L34.3806 35.1963C34.6626 34.9317 34.9361 34.6582 35.2007 34.3763L40.3115 33.8022C40.7221 33.7561 41.0863 33.5176 41.2926 33.1596C42.2706 31.463 43.0191 29.6441 43.5186 27.7506C43.6234 27.353 43.534 26.9292 43.2774 26.6078L40.0686 22.5897C40.0808 22.2029 40.0808 21.8158 40.0686 21.4291L43.2792 17.411C43.5366 17.0889 43.6259 16.6637 43.5199 16.2653C43.0161 14.3712 42.2621 12.5526 41.278 10.8576C41.0713 10.5015 40.7081 10.2644 40.2989 10.2184L35.1902 9.64439C34.9256 9.36243 34.6521 9.08894 34.3702 8.82433L33.7961 3.71354C33.7501 3.30379 33.5124 2.94016 33.1556 2.73358C31.4596 1.75171 29.6407 0.99944 27.7466 0.496513C27.3484 0.390786 26.9236 0.480057 26.6017 0.737138L22.5836 3.94591C22.1968 3.9337 21.8097 3.9337 21.423 3.9459L17.4049 0.735279ZM12.1738 9.58328L12.7275 4.6551C13.8676 4.04698 15.0654 3.55385 16.3031 3.183L20.1818 6.28221C20.4328 6.48281 20.7493 6.58332 21.0701 6.56434C21.6916 6.52756 22.3147 6.52756 22.9362 6.56434C23.2569 6.58331 23.5732 6.4829 23.8243 6.28244L27.7019 3.18585C28.9432 3.55987 30.1442 4.05654 31.287 4.66851L31.8409 9.59999C31.8768 9.91924 32.0296 10.2139 32.2698 10.4272C32.7348 10.8398 33.1747 11.2798 33.5874 11.7447C33.8006 11.9849 34.0952 12.1377 34.4145 12.1736L39.3449 12.7276C39.9581 13.8695 40.4557 15.0698 40.8304 16.3106L37.7323 20.1879C37.5317 20.4389 37.4312 20.7554 37.4502 21.0762C37.487 21.6977 37.487 22.3208 37.4502 22.9423C37.4312 23.263 37.5316 23.5794 37.7321 23.8304L40.8295 27.7091C40.458 28.9498 39.9641 30.1504 39.3549 31.2933L34.425 31.847C34.1058 31.8829 33.8111 32.0357 33.5978 32.2759C33.1852 32.7409 32.7452 33.1808 32.2803 33.5935C32.0401 33.8067 31.8873 34.1014 31.8514 34.4206L31.2974 39.351C30.1555 39.9642 28.9552 40.4618 27.7144 40.8365L23.8371 37.7384C23.5861 37.5378 23.2696 37.4373 22.9488 37.4563C22.3273 37.4931 21.7042 37.4931 21.0826 37.4563C20.762 37.4373 20.4456 37.5377 20.1946 37.7382L16.3159 40.8356C15.0752 40.4642 13.8746 39.9702 12.7317 39.361L12.178 34.4311C12.1421 34.1119 11.9893 33.8172 11.7491 33.604C11.2841 33.1913 10.8442 32.7513 10.4315 32.2864C10.2197 32.0478 9.92746 31.8953 9.61051 31.8582L4.67163 31.2797C4.0576 30.1367 3.55933 28.9353 3.18427 27.6933L6.28239 23.816C6.483 23.5649 6.5835 23.2485 6.56452 22.9277C6.52774 22.3062 6.52774 21.683 6.56452 21.0615C6.5835 20.7408 6.48308 20.4245 6.28263 20.1735L3.18603 16.2958C3.56005 15.0546 4.05672 13.8536 4.66869 12.7107L9.60017 12.1568C9.91942 12.121 10.2141 11.9682 10.4273 11.7279C10.84 11.263 11.2799 10.823 11.7449 10.4104C11.9851 10.1972 12.1379 9.90251 12.1738 9.58328Z" fill="#0698D6"/>
</svg>
