<svg width="28" height="28" viewBox="0 0 28 28" fill="none" xmlns="http://www.w3.org/2000/svg">
<path fill-rule="evenodd" clip-rule="evenodd" d="M15.8224 3.25265C12.0104 2.60654 8.04986 4.03719 5.54878 7.11487C5.33687 7.37564 5.22344 7.52862 5.19662 7.57537C5.21696 7.80982 5.65218 7.91169 5.82034 8.00878L9.45658 10.1082C11.0419 7.57194 12.8628 5.47607 14.6221 4.09175C15.0191 3.77932 15.4205 3.4972 15.8224 3.25265ZM3.84146 5.72741C3.54436 6.093 3.13248 6.55234 3.02326 7.21424C2.8793 8.08675 3.26126 8.94329 3.96863 9.45102C4.18546 9.60666 4.45434 9.76045 4.72034 9.91403C7.3124 11.4106 9.90446 12.9071 12.4965 14.4036L6.43643 24.9H2.00015C1.39263 24.9 0.900146 25.3925 0.900146 26C0.900146 26.6075 1.39263 27.1 2.00015 27.1H25.9981C26.6057 27.1 27.0981 26.6075 27.0981 26C27.0981 25.3925 26.6057 24.9 25.9981 24.9H8.97678L14.4018 15.5036L22.2124 20.0131C22.467 20.1601 22.7221 20.3075 22.9548 20.4127C23.7482 20.7714 24.6809 20.6739 25.3646 20.113C25.8832 19.6875 26.0751 19.1011 26.2431 18.661C28.4987 12.7544 26.1994 5.91938 20.5486 2.65692C14.8974 -0.606264 7.82889 0.820717 3.84146 5.72741ZM19.4486 4.56217C19.2211 4.43079 18.8436 4.36136 18.2235 4.54621C17.6003 4.73198 16.8365 5.14865 15.9825 5.82067C14.4768 7.00546 12.8329 8.87136 11.3631 11.2089L17.7352 14.8878C19.0247 12.4462 19.8186 10.0895 20.0918 8.19318C20.2468 7.11756 20.2258 6.24781 20.0751 5.61522C19.9251 4.98574 19.6762 4.69356 19.4486 4.56217ZM19.6417 15.9886C21.0455 13.3475 21.9501 10.7226 22.2693 8.50691C22.3414 8.00682 22.385 7.51814 22.3958 7.04781C24.8614 10.0261 25.6027 14.1713 24.1879 17.8762C24.1288 18.0309 24.106 18.3775 23.9139 18.4302C23.6905 18.3461 23.4834 18.2066 23.278 18.0879L19.6417 15.9886Z" fill="#78B72A"/>
</svg>
