<svg width="44" height="42" viewBox="0 0 44 42" fill="none" xmlns="http://www.w3.org/2000/svg">
<path fill-rule="evenodd" clip-rule="evenodd" d="M3.30286 5.58661C2.89434 5.95515 2.84811 6.19574 2.84811 6.29202C2.84811 6.3883 2.89434 6.6289 3.30286 6.99744C3.71118 7.3658 4.37509 7.75713 5.30614 8.1124C7.15929 8.8195 9.80718 9.2841 12.7965 9.2841C15.7859 9.2841 18.4337 8.8195 20.2869 8.1124C21.218 7.75713 21.8819 7.3658 22.2902 6.99744C22.6987 6.6289 22.7449 6.3883 22.7449 6.29202C22.7449 6.19574 22.6987 5.95515 22.2902 5.58661C21.8819 5.21824 21.218 4.82692 20.2869 4.47165C18.4337 3.76454 15.7859 3.29995 12.7965 3.29995C9.80718 3.29995 7.15929 3.76454 5.30614 4.47165C4.37509 4.82692 3.71118 5.21824 3.30286 5.58661ZM22.7804 9.81395C22.9169 10.3858 23.4312 10.8111 24.0449 10.8111C24.7629 10.8111 25.3449 10.229 25.3449 9.51108V6.29202C25.3449 5.20308 24.7617 4.31456 24.0318 3.6561C23.3017 2.99747 22.3183 2.46393 21.2138 2.04249C18.9958 1.19617 16.0195 0.699951 12.7965 0.699951C9.57354 0.699951 6.59722 1.19617 4.37924 2.04249C3.27473 2.46393 2.29134 2.99747 1.56127 3.6561C0.831385 4.31456 0.248108 5.20308 0.248108 6.29202V32.0445C0.248108 33.1334 0.831385 34.0219 1.56127 34.6804C2.29134 35.339 3.27473 35.8726 4.37924 36.294C6.59722 37.1403 9.57354 37.6365 12.7965 37.6365C13.5145 37.6365 14.0965 37.0545 14.0965 36.3365C14.0965 35.6186 13.5145 35.0365 12.7965 35.0365C9.80718 35.0365 7.15929 34.5719 5.30614 33.8648C4.37509 33.5096 3.71118 33.1182 3.30286 32.7499C2.89434 32.3813 2.84811 32.1407 2.84811 32.0445V27.0023C3.31838 27.2665 3.83405 27.5018 4.37924 27.7099C6.59722 28.5562 9.57354 29.0524 12.7965 29.0524C13.5145 29.0524 14.0965 28.4704 14.0965 27.7524C14.0965 27.0344 13.5145 26.4524 12.7965 26.4524C9.80718 26.4524 7.15929 25.9878 5.30614 25.2807C4.37509 24.9254 3.71118 24.5341 3.30286 24.1657C2.89434 23.7972 2.84811 23.5566 2.84811 23.4603V18.4181C3.21286 18.6231 3.60371 18.8099 4.01247 18.9797C6.03403 19.8193 8.75331 20.3476 11.7293 20.45C12.081 20.4621 12.437 20.4682 12.7965 20.4682C13.5145 20.4682 14.0965 19.8862 14.0965 19.1682C14.0965 18.4503 13.5145 17.8682 12.7965 17.8682C12.4667 17.8682 12.1405 17.8626 11.8186 17.8515C9.06145 17.7567 6.66781 17.2672 5.00974 16.5786C4.17722 16.2328 3.59428 15.8632 3.23992 15.523C2.88875 15.186 2.84811 14.9681 2.84811 14.8762V9.83399C3.31838 10.0982 3.83405 10.3335 4.37924 10.5416C6.59722 11.3879 9.57354 11.8841 12.7965 11.8841C16.0195 11.8841 18.9958 11.3879 21.2138 10.5416C21.7727 10.3283 22.3006 10.0863 22.7804 9.81395ZM21.7094 19.5358C21.3008 19.9044 21.2546 20.145 21.2546 20.2413C21.2546 20.3375 21.3008 20.5781 21.7094 20.9467C22.1177 21.315 22.7816 21.7064 23.7126 22.0616C25.5658 22.7687 28.2137 23.2333 31.203 23.2333C34.1924 23.2333 36.8402 22.7687 38.6934 22.0616C39.6245 21.7064 40.2883 21.315 40.6967 20.9467C41.1052 20.5781 41.1514 20.3375 41.1514 20.2413C41.1514 20.145 41.1052 19.9044 40.6967 19.5358C40.2883 19.1675 39.6245 18.7762 38.6934 18.4209C36.8402 17.7138 34.1924 17.2492 31.203 17.2492C28.2137 17.2492 25.5658 17.7138 23.7126 18.4209C22.7816 18.7762 22.1177 19.1675 21.7094 19.5358ZM41.1514 23.7832C40.6812 24.0474 40.1655 24.2828 39.6203 24.4908C37.4023 25.3371 34.426 25.8333 31.203 25.8333C27.98 25.8333 25.0037 25.3371 22.7857 24.4908C22.2405 24.2828 21.7249 24.0474 21.2546 23.7832V28.2889C21.2546 28.3852 21.3008 28.6258 21.7094 28.9943C22.1177 29.3627 22.7816 29.754 23.7126 30.1093C25.5658 30.8164 28.2137 31.281 31.203 31.281C34.1924 31.281 36.8402 30.8164 38.6934 30.1093C39.6245 29.754 40.2883 29.3627 40.6967 28.9943C41.1052 28.6258 41.1514 28.3852 41.1514 28.2889V23.7832ZM43.7514 20.2413C43.7514 19.1523 43.1682 18.2638 42.4383 17.6053C41.7082 16.9467 40.7248 16.4132 39.6203 15.9917C37.4023 15.1454 34.426 14.6492 31.203 14.6492C27.98 14.6492 25.0037 15.1454 22.7857 15.9917C21.6812 16.4132 20.6978 16.9467 19.9678 17.6053C19.2379 18.2638 18.6546 19.1523 18.6546 20.2413V36.3365C18.6546 37.4255 19.2379 38.314 19.9678 38.9725C20.6978 39.6311 21.6812 40.1646 22.7857 40.5861C25.0037 41.4324 27.98 41.9286 31.203 41.9286C34.426 41.9286 37.4023 41.4324 39.6203 40.5861C40.7248 40.1646 41.7082 39.6311 42.4383 38.9725C43.1682 38.314 43.7514 37.4255 43.7514 36.3365V20.2413ZM41.1514 31.8309C40.6812 32.0951 40.1655 32.3304 39.6203 32.5384C37.4023 33.3848 34.426 33.881 31.203 33.881C27.98 33.881 25.0037 33.3848 22.7857 32.5384C22.2405 32.3304 21.7249 32.0951 21.2546 31.8309V36.3365C21.2546 36.4328 21.3008 36.6734 21.7094 37.042C22.1177 37.4103 22.7816 37.8016 23.7126 38.1569C25.5658 38.864 28.2137 39.3286 31.203 39.3286C34.1924 39.3286 36.8402 38.864 38.6934 38.1569C39.6245 37.8016 40.2883 37.4103 40.6967 37.042C41.1052 36.6734 41.1514 36.4328 41.1514 36.3365V31.8309Z" fill="#5B57A2"/>
</svg>
