<svg width="28" height="28" viewBox="0 0 28 28" fill="none" xmlns="http://www.w3.org/2000/svg">
<path fill-rule="evenodd" clip-rule="evenodd" d="M0.900024 2.99193C0.900023 3.59952 0.940503 4.44601 1.10226 5.41424C1.42389 7.33936 2.23961 9.82706 4.2559 11.8384C6.36559 13.943 8.98608 14.2626 10.9648 14.0981C11.7047 14.0366 12.3724 13.9069 12.9187 13.7687V16.5334H7.42904C6.86195 16.5334 6.38308 16.9791 6.33285 17.5417C6.30085 17.9124 6.28415 18.2847 6.27334 18.6566C6.25386 19.3272 6.25355 20.247 6.33256 21.2323C6.41103 22.2108 6.57068 23.2939 6.88786 24.2747C7.19861 25.2357 7.70389 26.2347 8.56726 26.8807C8.75748 27.023 8.98866 27.0999 9.22623 27.0999H18.8112C19.0488 27.0999 19.28 27.023 19.4702 26.8807C20.3336 26.2347 20.8389 25.2357 21.1496 24.2747C21.4668 23.2939 21.6264 22.2108 21.7049 21.2323C21.7839 20.247 21.7836 19.3272 21.7641 18.6566C21.7533 18.2822 21.7379 17.9067 21.7039 17.5335C21.6523 16.9671 21.1773 16.5334 20.6084 16.5334H15.1187V15.2667C15.631 15.301 16.2714 15.3235 16.9843 15.3033C18.7319 15.2537 21.0526 14.9443 22.9706 13.7963C25.0204 12.5694 26.0202 10.2802 26.5203 8.5141C26.7781 7.60405 26.9217 6.76647 27.0013 6.15736C27.0455 5.81907 27.0823 5.47877 27.0987 5.13785C27.1232 4.57713 26.7131 4.07406 26.1552 3.99456C25.2864 3.87757 24.4049 3.83417 23.5288 3.83417C22.0566 3.83417 20.0943 3.98485 18.4035 4.65953C16.7213 5.33074 15.4189 6.61208 14.544 7.69334C13.9303 5.63908 12.8924 3.48609 10.9892 2.3469C9.24486 1.30285 6.91471 0.998172 5.15529 0.921855C4.25167 0.882659 3.44857 0.902267 2.87097 0.931564C2.55227 0.947729 2.23375 0.969589 1.91629 1.00221C1.40494 1.05889 1.00109 1.46327 0.944135 1.97459C0.907215 2.31166 0.900025 2.65322 0.900024 2.99193ZM3.10076 3.12306C3.1064 3.62469 3.14578 4.29512 3.27219 5.05171C3.54962 6.71227 4.23154 8.70666 5.80964 10.2809C7.29432 11.762 9.16682 12.04 10.7825 11.9057C11.6484 11.8337 12.4068 11.6436 12.9187 11.4837C12.9187 11.1217 12.9519 10.747 12.8989 10.3881C12.8384 9.97799 12.6654 8.98661 12.3014 7.89734C11.7955 6.38315 11.0025 4.91885 9.85932 4.2346C8.60833 3.48583 6.74509 3.19288 5.05995 3.11979C4.30091 3.08686 3.6164 3.09971 3.10076 3.12306ZM15.1187 13.0611C15.5948 13.0971 16.2198 13.1241 16.9218 13.1042C18.5282 13.0586 20.401 12.7704 21.8407 11.9086C23.1485 11.1258 23.9459 9.53062 24.4036 7.91465C24.598 7.22824 24.7184 6.58287 24.792 6.07439C24.4335 6.0517 24.0029 6.03417 23.5288 6.03417C22.1554 6.03417 20.5233 6.18231 19.2188 6.70286C17.982 7.1964 16.9293 8.21842 16.1559 9.20044C15.7774 9.68094 15.4843 10.1282 15.2868 10.4537C15.2189 10.5655 15.1628 10.6623 15.1187 10.7403V13.0611ZM8.47204 18.7334C8.45447 19.3501 8.45526 20.1803 8.52552 21.0564C8.59682 21.9454 8.7367 22.8419 8.98114 23.5978C9.17268 24.1902 9.4036 24.6188 9.6511 24.8999H18.3864C18.6339 24.6188 18.8648 24.1902 19.0563 23.5978C19.3008 22.8419 19.4407 21.9454 19.512 21.0564C19.5822 20.1803 19.583 19.3501 19.5654 18.7334H8.47204Z" fill="#0698D6"/>
</svg>
