<svg width="40" height="44" viewBox="0 0 40 44" fill="none" xmlns="http://www.w3.org/2000/svg">
<path fill-rule="evenodd" clip-rule="evenodd" d="M10.5482 11.0613V15.8666C10.5482 16.5845 11.1302 17.1666 11.8482 17.1666C12.5662 17.1666 13.1482 16.5845 13.1482 15.8666V11.0524L26.8528 11.0524V15.8666C26.8528 16.5845 27.4348 17.1666 28.1528 17.1666C28.8708 17.1666 29.4528 16.5845 29.4528 15.8666V11.0613C30.0453 11.0701 30.5476 11.0876 30.9892 11.1222C31.8526 11.1899 32.3805 11.3175 32.8018 11.5175C33.6647 11.9271 34.3863 12.5842 34.8747 13.4052C35.1131 13.8059 35.2894 14.3196 35.4374 15.1729C35.5881 16.042 35.6936 17.1571 35.8423 18.7433L37.0652 31.787C37.2411 33.6637 37.3644 34.9903 37.3738 36.0287C37.383 37.0533 37.2769 37.6689 37.0712 38.1478C36.6456 39.1385 35.8996 39.9576 34.953 40.4739C34.4954 40.7234 33.8924 40.8865 32.8714 40.9729C31.8367 41.0605 30.5043 41.0616 28.6194 41.0616H11.3816C9.49666 41.0616 8.1643 41.0605 7.12957 40.9729C6.10859 40.8865 5.50555 40.7234 5.048 40.4739C4.10136 39.9576 3.35545 39.1385 2.92979 38.1478C2.72405 37.6689 2.61798 37.0533 2.62724 36.0287C2.63663 34.9903 2.75991 33.6637 2.93585 31.787L4.15869 18.7433C4.3074 17.1571 4.41287 16.042 4.56359 15.1729C4.71156 14.3196 4.88792 13.8059 5.12631 13.4052C5.61471 12.5842 6.33629 11.9271 7.19925 11.5175C7.62046 11.3175 8.14843 11.1899 9.0118 11.1222C9.45341 11.0876 9.95574 11.0701 10.5482 11.0613ZM29.3652 8.45984C30.0495 8.46869 30.6546 8.48801 31.1924 8.53017C32.2129 8.61017 33.0935 8.7779 33.9167 9.16867C35.2457 9.79954 36.357 10.8115 37.1092 12.0758C37.5751 12.859 37.8243 13.7201 37.9992 14.7287C38.1693 15.71 38.2834 16.9267 38.426 18.4474L39.6593 31.6033C39.8285 33.4076 39.9632 34.8438 39.9737 36.0052C39.9844 37.193 39.8697 38.2207 39.4601 39.1742C38.8045 40.6999 37.6558 41.9614 36.1979 42.7565C35.2868 43.2533 34.2743 43.4634 33.0907 43.5636C31.9334 43.6616 30.491 43.6616 28.6789 43.6616H11.3221C9.51 43.6616 8.06755 43.6616 6.9103 43.5636C5.72666 43.4634 4.71416 43.2533 3.80313 42.7565C2.34525 41.9614 1.19649 40.6999 0.540951 39.1742C0.131307 38.2207 0.0166115 37.193 0.027349 36.0052C0.0378474 34.8438 0.172498 33.4077 0.341655 31.6035L1.57505 18.4473C1.7176 16.9266 1.83165 15.7099 2.00183 14.7287C2.17673 13.7201 2.42592 12.859 2.89183 12.0758C3.644 10.8115 4.75528 9.79954 6.08429 9.16867C6.90752 8.77789 7.78813 8.61017 8.80861 8.53017C9.34642 8.48801 9.95146 8.46869 10.6358 8.45983C11.266 3.85097 15.2186 0.300049 20.0005 0.300049C24.7824 0.300049 28.735 3.85097 29.3652 8.45984ZM26.7297 8.45235C26.1223 5.28959 23.3404 2.90005 20.0005 2.90005C16.6606 2.90005 13.8787 5.28959 13.2714 8.45235L26.7297 8.45235Z" fill="#0698D6"/>
</svg>
