<svg width="30" height="27" viewBox="0 0 30 27" fill="none" xmlns="http://www.w3.org/2000/svg">
<path fill-rule="evenodd" clip-rule="evenodd" d="M11.9933 0.216059C12.964 0.598022 14.0129 0.81781 15.0568 0.81781C16.2069 0.81781 17.6095 0.613286 18.6873 0.211955C18.9035 0.147805 19.1342 0.151643 19.3481 0.222952L23.3481 1.55629C23.5101 1.61029 23.6573 1.70127 23.7781 1.82202L29.1114 7.15535C29.5137 7.55764 29.5428 8.20031 29.1786 8.63737L25.8453 12.6374C25.5783 12.9577 25.16 13.0936 24.7669 13.0083V25.2665C24.7669 25.874 24.2744 26.3665 23.6669 26.3665H6.33357C5.72605 26.3665 5.23357 25.874 5.23357 25.2665V13.0083C4.84044 13.0936 4.42213 12.9577 4.15519 12.6374L0.821857 8.63737C0.457641 8.20031 0.486793 7.55764 0.889083 7.15535L6.22242 1.82202C6.3546 1.68983 6.51829 1.59352 6.69804 1.54216L11.3647 0.208828C11.5705 0.15004 11.789 0.152573 11.9933 0.216059ZM12.7007 4.34566C13.1728 5.1549 13.8699 5.79992 15.0006 5.79992C16.1312 5.79992 16.8284 5.1549 17.3004 4.34566C17.6042 3.82487 17.7995 3.25621 17.925 2.66907C17.8653 2.68095 17.8043 2.6935 17.7422 2.70691C16.936 2.88097 15.9665 3.0644 15.0568 3.03503C14.2945 3.01043 13.2649 2.81847 12.5938 2.65613C12.3864 2.60598 12.1958 2.55637 12.0299 2.51149C12.1878 3.14872 12.3666 3.77289 12.7007 4.34566ZM5.29848 10.5625L5.94919 10.2332C6.25552 10.08 6.69271 10.1863 6.98405 10.3665C7.27539 10.5467 7.44661 10.9802 7.44661 11.323V24.1784H22.5494V11.3214C22.5494 10.9787 22.6939 10.5702 22.9853 10.39C23.2766 10.2098 23.7608 10.0956 24.0672 10.2489L24.7179 10.5625L26.8425 7.98319L22.4051 3.54581L20.0958 2.79488C20.1287 3.14046 19.996 3.52016 19.8963 3.84636C19.765 4.27603 19.5473 4.8601 19.2007 5.45417C18.5061 6.64493 17.2032 7.99992 15.0006 7.99992C12.7979 7.99992 11.495 6.64493 10.8004 5.45417C10.279 4.56027 10.052 3.70859 9.96282 3.31447C9.93235 3.17975 9.90104 3.04237 9.9004 2.90364L7.57812 3.58191L3.1582 7.99887L5.29848 10.5625Z" fill="#5B57A2"/>
</svg>
