<svg width="46" height="42" viewBox="0 0 46 42" fill="none" xmlns="http://www.w3.org/2000/svg">
<path fill-rule="evenodd" clip-rule="evenodd" d="M34.022 0.80889C34.5773 1.02836 34.9117 1.59786 34.8327 2.1897L32.9198 16.5364L41.9193 16.5364C42.7895 16.5363 43.8034 16.4633 44.5338 17.027C45.0872 17.4541 45.4222 18.1051 45.4481 18.8037C45.4823 19.7258 44.8335 20.5084 44.3276 21.2165L30.3837 40.7379C30.0367 41.2238 29.4033 41.4108 28.848 41.1913C28.2928 40.9718 27.9584 40.4024 28.0373 39.8105L29.9502 25.4638L20.9508 25.4638C20.0805 25.4639 19.0667 25.537 18.3362 24.9732C17.7828 24.5461 17.4478 23.8951 17.4219 23.1965C17.3877 22.2745 18.0364 21.4919 18.5423 20.7838L32.4863 1.26227C32.8333 0.776413 33.4667 0.58942 34.022 0.80889ZM31.565 7.02531L20.6892 22.2514C20.5073 22.506 20.368 22.7018 20.2605 22.8593C20.4512 22.8634 20.6914 22.8638 21.0044 22.8638H31.435C31.8097 22.8638 32.1663 23.0255 32.4131 23.3075C32.66 23.5894 32.7731 23.9642 32.7236 24.3356L31.305 34.9749L42.1808 19.7488C42.3627 19.4942 42.502 19.2985 42.6095 19.1409C42.4188 19.1368 42.1786 19.1364 41.8656 19.1364H31.435C31.0603 19.1364 30.7038 18.9747 30.4569 18.6927C30.2101 18.4108 30.0969 18.036 30.1464 17.6646L31.565 7.02531ZM4.82539 9.39986C4.82539 8.68189 5.40742 8.09986 6.12539 8.09986H16.6711C17.389 8.09986 17.9711 8.68189 17.9711 9.39986C17.9711 10.1178 17.389 10.6999 16.6711 10.6999H6.12539C5.40742 10.6999 4.82539 10.1178 4.82539 9.39986ZM0.607117 21.0001C0.607117 20.2821 1.18915 19.7001 1.90712 19.7001H11.3982C12.1162 19.7001 12.6982 20.2821 12.6982 21.0001C12.6982 21.7181 12.1162 22.3001 11.3982 22.3001H1.90712C1.18915 22.3001 0.607117 21.7181 0.607117 21.0001ZM3.77082 32.6003C3.77082 31.8824 4.35285 31.3004 5.07082 31.3004H16.6711C17.389 31.3004 17.9711 31.8824 17.9711 32.6003C17.9711 33.3183 17.389 33.9003 16.6711 33.9003H5.07082C4.35285 33.9003 3.77082 33.3183 3.77082 32.6003Z" fill="#EF8019"/>
</svg>
